<svg width="327" height="39" viewBox="0 0 337 49" fill="none" xmlns="http://www.w3.org/2000/svg">
<path d="M0.636364 48V1.45454H6.27273V24.5455H6.81818L27.7273 1.45454H35.0909L15.5455 22.4545L35.0909 48H28.2727L12.0909 26.3636L6.27273 32.9091V48H0.636364ZM137.072 24.7273C137.072 29.6364 136.185 33.8788 134.412 37.4545C132.64 41.0303 130.208 43.7879 127.117 45.7273C124.026 47.6667 120.496 48.6364 116.526 48.6364C112.556 48.6364 109.026 47.6667 105.935 45.7273C102.844 43.7879 100.412 41.0303 98.6398 37.4545C96.867 33.8788 95.9807 29.6364 95.9807 24.7273C95.9807 19.8182 96.867 15.5758 98.6398 12C100.412 8.42424 102.844 5.66667 105.935 3.72727C109.026 1.78788 112.556 0.81818 116.526 0.81818C120.496 0.81818 124.026 1.78788 127.117 3.72727C130.208 5.66667 132.64 8.42424 134.412 12C136.185 15.5758 137.072 19.8182 137.072 24.7273ZM131.617 24.7273C131.617 20.697 130.943 17.2955 129.594 14.5227C128.261 11.75 126.45 9.65151 124.162 8.22727C121.89 6.80303 119.344 6.09091 116.526 6.09091C113.708 6.09091 111.155 6.80303 108.867 8.22727C106.594 9.65151 104.784 11.75 103.435 14.5227C102.102 17.2955 101.435 20.697 101.435 24.7273C101.435 28.7576 102.102 32.1591 103.435 34.9318C104.784 37.7045 106.594 39.803 108.867 41.2273C111.155 42.6515 113.708 43.3636 116.526 43.3636C119.344 43.3636 121.89 42.6515 124.162 41.2273C126.45 39.803 128.261 37.7045 129.594 34.9318C130.943 32.1591 131.617 28.7576 131.617 24.7273ZM204.149 48V1.45454H219.876C223.512 1.45454 226.497 2.07576 228.831 3.31818C231.164 4.54545 232.891 6.23485 234.012 8.38636C235.134 10.5379 235.694 12.9848 235.694 15.7273C235.694 18.4697 235.134 20.9015 234.012 23.0227C232.891 25.1439 231.172 26.8106 228.853 28.0227C226.535 29.2197 223.573 29.8182 219.967 29.8182H207.24V24.7273H219.785C222.27 24.7273 224.27 24.3636 225.785 23.6364C227.316 22.9091 228.422 21.8788 229.103 20.5455C229.8 19.197 230.149 17.5909 230.149 15.7273C230.149 13.8636 229.8 12.2348 229.103 10.8409C228.406 9.44697 227.293 8.37121 225.762 7.61364C224.232 6.84091 222.209 6.45454 219.694 6.45454H209.785V48H204.149ZM226.058 27.0909L237.512 48H230.967L219.694 27.0909H226.058ZM297.124 1.45454H303.578L316.487 23.1818H317.033L329.942 1.45454H336.397L319.578 28.8182V48H313.942V28.8182L297.124 1.45454Z" fill="white"/>
</svg>
